<svg width="40" height="40" viewBox="0 0 40 40" xmlns="http://www.w3.org/2000/svg">
  <rect width="40" height="40" rx="10" fill="#C9A84C" opacity="0.15"/>
  <path d="M20 8 c-6.5 0-12 5.5-12 12.5 c0 7 5.5 12.5 12 12.5 c3.5 0 7-1.5 9.5-4.5 v-9 h-9.5 v3.5 h5 v2.5 c-1.5 1.5-3 2.5-5 2.5 c-4.5 0-8-3.5-8-7.5 c0-4.5 3.5-8 8-8 c2 0 4 0.8 5.5 2.2 l2.8-2.8 c-2.2-2.2-5-3.4-8.3-3.4 z" fill="#C9A84C"/>
  <path d="M6 36 q7-3 14 0 t14 0" stroke="#C9A84C" stroke-width="1.5" fill="none" opacity="0.6" stroke-linecap="round"/>
</svg>